<svg width="256" height="157" viewBox="0 0 256 157" xmlns="http://www.w3.org/2000/svg"><path d="M103.996 27.798c.921-.922.921-2.482 0-3.404L80.346.744c-.922-.921-2.482-.921-3.404 0L.922 76.73c-.922.922-.922 2.482 0 3.404l76.02 76.02c.922.922 2.482.922 3.404 0l23.65-23.65c.921-.922.921-2.482 0-3.404L55.065 80.17c-.922-.922-.922-2.483 0-3.404l48.93-48.967z" fill="#F93535"/><path d="M179.165.745c-.922-.922-2.482-.922-3.404 0L99.847 76.623c-.922.922-.922 2.482 0 3.404l23.65 23.685c.922.922 2.482.922 3.404 0l48.86-48.86c.922-.922 2.482-.922 3.404 0l21.877 21.877c.921.922.921 2.482 0 3.404l-48.931 48.93c-.922.923-.922 2.483 0 3.405l23.65 23.65c.922.921 2.482.921 3.404 0l75.984-75.985c.922-.922.922-2.482 0-3.404L179.165.745z" fill="#F93535"/></svg>